<svg width="20" height="20" viewBox="0 0 20 20" fill="none" xmlns="http://www.w3.org/2000/svg">
<path d="M18.8961 4.23409C18.8057 4.68547 18.6711 5.04205 18.5531 5.26316C18.7647 5.75862 18.8888 6.26488 18.9505 6.75653C19.1999 8.74316 17.2558 10 15.2536 10H5.10268C3.28658 10 1.49859 9.03032 1.16039 7.24598C0.908246 5.9157 0.97925 4.66272 1.19465 3.60201C1.53976 1.90256 3.21653 1 4.95067 1H15.252C17.2542 1 19.2891 2.27079 18.8961 4.23409Z" fill="#FFBAAB"/>
<path d="M18.5531 5.26316C18.6711 5.04205 18.8057 4.68547 18.8961 4.23409C19.2891 2.27079 17.2542 1 15.252 1C12.3988 1 8.27058 1 4.95067 1C3.21653 1 1.53976 1.90256 1.19465 3.60201C0.97925 4.66272 0.908246 5.9157 1.16039 7.24598C1.49859 9.03032 3.28658 10 5.10268 10C7.95585 10 11.9871 10 15.2536 10C17.2558 10 19.1999 8.74316 18.9505 6.75653C18.8888 6.26488 18.7647 5.75862 18.5531 5.26316ZM18.5531 5.26316H4.68182" stroke="#1B1F26" stroke-linecap="round" stroke-linejoin="round"/>
<path d="M18.8961 13.2341C18.8057 13.6855 18.6711 14.042 18.5531 14.2632C18.7647 14.7586 18.8888 15.2649 18.9505 15.7565C19.1999 17.7432 17.2558 19 15.2536 19H5.10268C3.28658 19 1.49859 18.0303 1.16039 16.246C0.908246 14.9157 0.97925 13.6627 1.19465 12.602C1.53976 10.9026 3.21653 10 4.95067 10H15.252C17.2542 10 19.2891 11.2708 18.8961 13.2341Z" fill="#FF7455"/>
<path d="M18.5531 14.2632C18.6711 14.042 18.8057 13.6855 18.8961 13.2341C19.2891 11.2708 17.2542 10 15.252 10C12.3988 10 8.27058 10 4.95067 10C3.21653 10 1.53976 10.9026 1.19465 12.602C0.97925 13.6627 0.908246 14.9157 1.16039 16.246C1.49859 18.0303 3.28658 19 5.10268 19C7.95585 19 11.9871 19 15.2536 19C17.2558 19 19.1999 17.7432 18.9505 15.7565C18.8888 15.2649 18.7647 14.7586 18.5531 14.2632ZM18.5531 14.2632H4.68182" stroke="#1B1F26" stroke-linecap="round" stroke-linejoin="round"/>
</svg>
