<svg width="32" height="32" viewBox="0 0 32 32" fill="none" xmlns="http://www.w3.org/2000/svg">
<path d="M16.0003 4.19995L16 4.19995C13.2968 4.19995 10.6313 4.36687 8.01309 4.68811C7.39926 4.76793 6.83565 5.0691 6.42813 5.53511C6.01999 6.00183 5.79659 6.60167 5.8 7.22166L5.80003 7.22715H5.80001V27.6V27.6001C5.80001 27.6339 5.80859 27.6672 5.82494 27.6968C5.8413 27.7264 5.8649 27.7514 5.89355 27.7694C5.92219 27.7874 5.95493 27.7978 5.9887 27.7998C6.02248 27.8017 6.05619 27.795 6.08668 27.7803L6.08728 27.78L15.5673 23.2296L16 23.0219L16.4327 23.2296L25.9127 27.78L25.9133 27.7803C25.9438 27.795 25.9775 27.8017 26.0113 27.7998C26.0451 27.7978 26.0778 27.7874 26.1065 27.7694C26.1351 27.7514 26.1587 27.7264 26.1751 27.6968C26.1914 27.6672 26.2 27.6339 26.2 27.6001V27.6V7.22715C26.2 5.94562 25.2657 4.84654 23.9899 4.68847L16.0003 4.19995ZM16.0003 4.19995C18.6709 4.19912 21.3391 4.36226 23.9897 4.68845L16.0003 4.19995Z" stroke="white" stroke-width="2"/>
</svg>
