<svg width="20" height="20" viewBox="0 0 20 20" fill="none" xmlns="http://www.w3.org/2000/svg">
<mask id="path-1-inside-1_365_2785" fill="white">
<path fill-rule="evenodd" clip-rule="evenodd" d="M13.6525 3.2179C13.588 3.08464 13.453 3 13.3049 3L6.6951 3C6.54703 3 6.412 3.08464 6.34746 3.2179L5.39861 5.17699C5.33407 5.31024 5.19903 5.39488 5.05097 5.39488L2.85408 5.39488C1.8301 5.39488 0.999999 6.22498 0.999999 7.24896L0.999998 15.5151C0.999998 16.539 1.8301 17.3691 2.85408 17.3691L17.1459 17.3691C18.1699 17.3691 19 16.539 19 15.5151L19 7.24896C19 6.22498 18.1699 5.39488 17.1459 5.39488L14.949 5.39488C14.801 5.39488 14.6659 5.31025 14.6014 5.17699L13.6525 3.2179Z"/>
</mask>
<path fill-rule="evenodd" clip-rule="evenodd" d="M13.6525 3.2179C13.588 3.08464 13.453 3 13.3049 3L6.6951 3C6.54703 3 6.412 3.08464 6.34746 3.2179L5.39861 5.17699C5.33407 5.31024 5.19903 5.39488 5.05097 5.39488L2.85408 5.39488C1.8301 5.39488 0.999999 6.22498 0.999999 7.24896L0.999998 15.5151C0.999998 16.539 1.8301 17.3691 2.85408 17.3691L17.1459 17.3691C18.1699 17.3691 19 16.539 19 15.5151L19 7.24896C19 6.22498 18.1699 5.39488 17.1459 5.39488L14.949 5.39488C14.801 5.39488 14.6659 5.31025 14.6014 5.17699L13.6525 3.2179Z" fill="#1B1F26"/>
<path d="M2.85408 17.3691L2.85408 18.3691L2.85408 17.3691ZM17.1459 17.3691L17.1459 16.3691L17.1459 17.3691ZM5.39861 5.17699L6.29861 5.61288L5.39861 5.17699ZM14.6014 5.17699L15.5014 4.74109L14.6014 5.17699ZM13.6525 3.2179L12.7525 3.65379L13.6525 3.2179ZM6.34746 3.2179L5.44746 2.782L6.34746 3.2179ZM6.6951 4L13.3049 4L13.3049 2L6.6951 2L6.6951 4ZM6.29861 5.61288L7.24746 3.65379L5.44746 2.782L4.49861 4.74109L6.29861 5.61288ZM2.85408 6.39488L5.05097 6.39488L5.05097 4.39488L2.85408 4.39488L2.85408 6.39488ZM2 7.24896C2 6.77727 2.38238 6.39488 2.85408 6.39488L2.85408 4.39488C1.27782 4.39488 -4.67309e-07 5.6727 -7.42912e-07 7.24896L2 7.24896ZM2 15.5151L2 7.24896L-7.42912e-07 7.24896L-2.1882e-06 15.5151L2 15.5151ZM2.85408 16.3691C2.38238 16.3691 2 15.9867 2 15.5151L-2.1882e-06 15.5151C-2.4638e-06 17.0913 1.27781 18.3691 2.85408 18.3691L2.85408 16.3691ZM17.1459 16.3691L2.85408 16.3691L2.85408 18.3691L17.1459 18.3691L17.1459 16.3691ZM18 15.5151C18 15.9867 17.6176 16.3691 17.1459 16.3691L17.1459 18.3691C18.7222 18.3691 20 17.0913 20 15.5151L18 15.5151ZM18 7.24896L18 15.5151L20 15.5151L20 7.24896L18 7.24896ZM17.1459 6.39488C17.6176 6.39488 18 6.77727 18 7.24896L20 7.24896C20 5.6727 18.7222 4.39488 17.1459 4.39488L17.1459 6.39488ZM14.949 6.39488L17.1459 6.39488L17.1459 4.39488L14.949 4.39488L14.949 6.39488ZM12.7525 3.65379L13.7014 5.61289L15.5014 4.74109L14.5525 2.782L12.7525 3.65379ZM4.49861 4.74109C4.60116 4.52936 4.81572 4.39488 5.05097 4.39488L5.05097 6.39488C5.58235 6.39488 6.06698 6.09113 6.29861 5.61288L4.49861 4.74109ZM14.949 4.39488C15.1843 4.39488 15.3988 4.52936 15.5014 4.74109L13.7014 5.61289C13.933 6.09113 14.4176 6.39488 14.949 6.39488L14.949 4.39488ZM13.3049 4C13.0696 4 12.8551 3.86552 12.7525 3.65379L14.5525 2.782C14.3209 2.30376 13.8363 2 13.3049 2L13.3049 4ZM6.6951 2C6.16371 2 5.67909 2.30376 5.44746 2.782L7.24746 3.65379C7.14491 3.86552 6.93035 4 6.6951 4L6.6951 2Z" fill="black" mask="url(#path-1-inside-1_365_2785)"/>
<ellipse cx="16" cy="8" rx="1" ry="1" fill="#EBFF95"/>
<path d="M13.5 11C13.5 12.933 11.933 14.5 10 14.5C8.067 14.5 6.5 12.933 6.5 11C6.5 9.067 8.067 7.5 10 7.5C11.933 7.5 13.5 9.067 13.5 11Z" fill="#1B1F26" stroke="white"/>
</svg>
