<svg width="20" height="20" viewBox="0 0 20 20" fill="none" xmlns="http://www.w3.org/2000/svg">
<mask id="path-1-outside-1_365_2768" maskUnits="userSpaceOnUse" x="6.45459" y="11.4546" width="7" height="9" fill="black">
<rect fill="white" x="6.45459" y="11.4546" width="7" height="9"/>
<path fill-rule="evenodd" clip-rule="evenodd" d="M11.1364 15.7273C10.9397 15.7273 10.7273 15.5941 10.7273 15.3974V13.2728C10.7273 12.8209 10.361 12.4546 9.90914 12.4546C9.45727 12.4546 9.09095 12.8209 9.09095 13.2728V15.3974C9.09095 15.5941 8.87857 15.7273 8.68186 15.7273C8.00406 15.7273 7.45459 16.4599 7.45459 17.3637C7.45459 18.2674 8.00406 19 8.68186 19C9.09524 19 9.46088 18.7275 9.68326 18.3099C9.72672 18.2283 9.81667 18.1819 9.90914 18.1819C10.0016 18.1819 10.0916 18.2283 10.135 18.3099C10.3574 18.7275 10.723 19 11.1364 19C11.8142 19 12.3637 18.2674 12.3637 17.3637C12.3637 16.4599 11.8142 15.7273 11.1364 15.7273Z"/>
</mask>
<path fill-rule="evenodd" clip-rule="evenodd" d="M11.1364 15.7273C10.9397 15.7273 10.7273 15.5941 10.7273 15.3974V13.2728C10.7273 12.8209 10.361 12.4546 9.90914 12.4546C9.45727 12.4546 9.09095 12.8209 9.09095 13.2728V15.3974C9.09095 15.5941 8.87857 15.7273 8.68186 15.7273C8.00406 15.7273 7.45459 16.4599 7.45459 17.3637C7.45459 18.2674 8.00406 19 8.68186 19C9.09524 19 9.46088 18.7275 9.68326 18.3099C9.72672 18.2283 9.81667 18.1819 9.90914 18.1819C10.0016 18.1819 10.0916 18.2283 10.135 18.3099C10.3574 18.7275 10.723 19 11.1364 19C11.8142 19 12.3637 18.2674 12.3637 17.3637C12.3637 16.4599 11.8142 15.7273 11.1364 15.7273Z" fill="#F5F6F8"/>
<path d="M9.68326 18.3099L8.80059 17.8399L9.68326 18.3099ZM9.72732 13.2728V15.3974H11.7273V13.2728H9.72732ZM9.90914 13.4546C9.80872 13.4546 9.72732 13.3732 9.72732 13.2728H11.7273C11.7273 12.2686 10.9133 11.4546 9.90914 11.4546V13.4546ZM10.091 13.2728C10.091 13.3732 10.0095 13.4546 9.90914 13.4546V11.4546C8.90498 11.4546 8.09095 12.2686 8.09095 13.2728H10.091ZM10.091 15.3974V13.2728H8.09095V15.3974H10.091ZM8.45459 17.3637C8.45459 17.1073 8.5338 16.9136 8.61405 16.8066C8.69407 16.6999 8.72829 16.7273 8.68186 16.7273V14.7273C7.95763 14.7273 7.37821 15.121 7.01405 15.6066C6.65012 16.0918 6.45459 16.7164 6.45459 17.3637H8.45459ZM8.68186 18C8.72829 18 8.69407 18.0275 8.61405 17.9208C8.5338 17.8138 8.45459 17.6201 8.45459 17.3637H6.45459C6.45459 18.011 6.65012 18.6355 7.01405 19.1208C7.37821 19.6063 7.95763 20 8.68186 20V18ZM8.80059 17.8399C8.75226 17.9307 8.70364 17.9762 8.67844 17.994C8.6573 18.0089 8.66057 18 8.68186 18V20C9.57101 20 10.2262 19.4179 10.5659 18.7799L8.80059 17.8399ZM11.1364 18C11.1577 18 11.161 18.0089 11.1398 17.994C11.1146 17.9762 11.066 17.9307 11.0177 17.8399L9.25235 18.7799C9.59205 19.4179 10.2473 20 11.1364 20V18ZM11.3637 17.3637C11.3637 17.6201 11.2845 17.8138 11.2042 17.9208C11.1242 18.0275 11.09 18 11.1364 18V20C11.8606 20 12.4401 19.6063 12.8042 19.1208C13.1682 18.6355 13.3637 18.011 13.3637 17.3637H11.3637ZM11.1364 16.7273C11.09 16.7273 11.1242 16.6999 11.2042 16.8066C11.2845 16.9136 11.3637 17.1073 11.3637 17.3637H13.3637C13.3637 16.7164 13.1682 16.0918 12.8042 15.6066C12.4401 15.121 11.8606 14.7273 11.1364 14.7273V16.7273ZM9.90914 19.1819C9.68968 19.1819 9.40808 19.0724 9.25235 18.7799L11.0177 17.8399C10.775 17.3842 10.3135 17.1819 9.90914 17.1819V19.1819ZM10.5659 18.7799C10.4102 19.0724 10.1286 19.1819 9.90914 19.1819V17.1819C9.50475 17.1819 9.04325 17.3842 8.80059 17.8399L10.5659 18.7799ZM8.09095 15.3974C8.09095 15.1028 8.2561 14.9137 8.36269 14.8343C8.46224 14.7601 8.57072 14.7273 8.68186 14.7273V16.7273C8.98972 16.7273 9.30274 16.628 9.55766 16.438C9.81962 16.2428 10.091 15.8888 10.091 15.3974H8.09095ZM9.72732 15.3974C9.72732 15.8888 9.99866 16.2428 10.2606 16.438C10.5155 16.628 10.8286 16.7273 11.1364 16.7273V14.7273C11.2476 14.7273 11.356 14.7601 11.4556 14.8343C11.5622 14.9137 11.7273 15.1028 11.7273 15.3974H9.72732Z" fill="#1B1F26" mask="url(#path-1-outside-1_365_2768)"/>
<mask id="path-3-inside-2_365_2768" fill="white">
<path fill-rule="evenodd" clip-rule="evenodd" d="M13.4452 10.5813C13.5423 10.3551 13.6208 10.1126 13.7747 9.92046C14.5316 8.97489 14.9894 7.74234 14.9894 6.39429C14.9894 3.41511 12.7532 1 9.99471 1C7.23621 1 5 3.41511 5 6.39429C5 7.74215 5.45772 8.97454 6.21445 9.92006C6.3683 10.1123 6.44683 10.3549 6.54392 10.5811C6.56199 10.6232 6.58324 10.6649 6.60783 10.7059L7.57395 12.3161C8.08412 13.1663 9.003 13.6866 9.99458 13.6866C10.9862 13.6866 11.905 13.1663 12.4152 12.3161L13.3813 10.7059C13.4059 10.6649 13.4271 10.6233 13.4452 10.5813Z"/>
</mask>
<path fill-rule="evenodd" clip-rule="evenodd" d="M13.4452 10.5813C13.5423 10.3551 13.6208 10.1126 13.7747 9.92046C14.5316 8.97489 14.9894 7.74234 14.9894 6.39429C14.9894 3.41511 12.7532 1 9.99471 1C7.23621 1 5 3.41511 5 6.39429C5 7.74215 5.45772 8.97454 6.21445 9.92006C6.3683 10.1123 6.44683 10.3549 6.54392 10.5811C6.56199 10.6232 6.58324 10.6649 6.60783 10.7059L7.57395 12.3161C8.08412 13.1663 9.003 13.6866 9.99458 13.6866C10.9862 13.6866 11.905 13.1663 12.4152 12.3161L13.3813 10.7059C13.4059 10.6649 13.4271 10.6233 13.4452 10.5813Z" fill="#FFAD30"/>
<path d="M6.60783 10.7059L7.46532 10.1914L6.60783 10.7059ZM7.57395 12.3161L8.43145 11.8016H8.43145L7.57395 12.3161ZM12.4152 12.3161L13.2727 12.8306L12.4152 12.3161ZM13.3813 10.7059L12.5238 10.1914L12.5238 10.1914L13.3813 10.7059ZM6.21445 9.92006L6.9952 9.29521L6.21445 9.92006ZM6.54392 10.5811L5.62496 10.9755L6.54392 10.5811ZM13.7747 9.92046L12.994 9.29553L13.7747 9.92046ZM13.4452 10.5813L12.5263 10.1868L13.4452 10.5813ZM13.9894 6.39429C13.9894 7.51449 13.6093 8.52678 12.994 9.29553L14.5553 10.5454C15.4538 9.423 15.9894 7.97019 15.9894 6.39429H13.9894ZM9.99471 2C12.1299 2 13.9894 3.89353 13.9894 6.39429H15.9894C15.9894 2.93669 13.3766 0 9.99471 0V2ZM6 6.39429C6 3.89353 7.85957 2 9.99471 2V0C6.61285 0 4 2.93669 4 6.39429H6ZM6.9952 9.29521C6.37997 8.5265 6 7.51433 6 6.39429H4C4 7.96996 4.53548 9.42258 5.43371 10.5449L6.9952 9.29521ZM7.46532 10.1914C7.46378 10.1888 7.46309 10.1873 7.46288 10.1868L5.62496 10.9755C5.66089 11.0592 5.70271 11.141 5.75033 11.2203L7.46532 10.1914ZM8.43145 11.8016L7.46532 10.1914L5.75033 11.2203L6.71646 12.8306L8.43145 11.8016ZM9.99458 12.6866C9.35426 12.6866 8.76089 12.3506 8.43145 11.8016L6.71646 12.8306C7.40735 13.982 8.65174 14.6866 9.99458 14.6866V12.6866ZM11.5577 11.8016C11.2283 12.3506 10.6349 12.6866 9.99458 12.6866V14.6866C11.3374 14.6866 12.5818 13.982 13.2727 12.8306L11.5577 11.8016ZM12.5238 10.1914L11.5577 11.8016L13.2727 12.8306L14.2388 11.2203L12.5238 10.1914ZM12.5263 10.1868C12.5261 10.1873 12.5254 10.1888 12.5238 10.1914L14.2388 11.2203C14.2864 11.1411 14.3282 11.0594 14.3641 10.9758L12.5263 10.1868ZM5.43371 10.5449C5.43635 10.5482 5.45419 10.5721 5.48906 10.6493C5.50623 10.6874 5.52392 10.7299 5.54684 10.7863C5.56772 10.8376 5.59586 10.9077 5.62496 10.9755L7.46288 10.1868C7.41806 10.0823 7.26092 9.62723 6.9952 9.29521L5.43371 10.5449ZM12.994 9.29553C12.7283 9.62744 12.5711 10.0823 12.5263 10.1868L14.3641 10.9758C14.3932 10.908 14.4213 10.8379 14.4422 10.7866C14.4651 10.7303 14.4828 10.6878 14.5 10.6498C14.5349 10.5726 14.5527 10.5487 14.5553 10.5454L12.994 9.29553Z" fill="#1B1F26" mask="url(#path-3-inside-2_365_2768)"/>
<circle cx="7.5" cy="5.5" r="0.5" fill="#1B1F26"/>
<circle cx="9.5" cy="4.5" r="0.5" fill="#1B1F26"/>
<circle cx="8.5" cy="7.5" r="0.5" fill="#1B1F26"/>
</svg>
