<svg width="20" height="20" viewBox="0 0 20 20" fill="none" xmlns="http://www.w3.org/2000/svg">
<path d="M11.8034 10H8.35479C8.06097 10 7.78202 10.1292 7.59202 10.3533L3.74843 14.8871C3.35393 15.3524 3.46566 16.0634 4.0042 16.35C9.33646 19.1876 13.9262 17.8072 16.2131 16.3472C16.6715 16.0546 16.7246 15.4334 16.3801 15.0126L12.5772 10.3666C12.3873 10.1346 12.1032 10 11.8034 10Z" fill="#EC5A54" stroke="#1B1F26" stroke-linecap="round"/>
<path d="M11.3757 8H8.85402C8.45672 8 8.0971 7.76481 7.93786 7.40082L7.08384 5.44878C7.02855 5.32239 7 5.18592 7 5.04796V3.25935C7 2.90463 7.19007 2.5771 7.49805 2.40111C7.90642 2.16776 8.42266 2.25447 8.73238 2.60843L9.3668 3.33349C9.77569 3.80079 10.5072 3.78638 10.8973 3.30332L11.4572 2.61018C11.737 2.26368 12.2338 2.18533 12.6067 2.42888C12.8521 2.58912 13 2.86238 13 3.15543V5.09727C13 5.20318 12.9832 5.30842 12.9502 5.40904L12.3258 7.31177C12.1911 7.72239 11.8078 8 11.3757 8Z" fill="#EC5A54" stroke="#1B1F26" stroke-linecap="round"/>
</svg>
