<svg width="20" height="21" viewBox="0 0 20 21" fill="none" xmlns="http://www.w3.org/2000/svg">
<path d="M6.5 16.5H13.5V20C13.5 20.2761 13.2761 20.5 13 20.5H7C6.72386 20.5 6.5 20.2761 6.5 20V16.5Z" fill="#0754B4" stroke="#1B1F26"/>
<path d="M16 1H4C3.44772 1 3 1.44771 3 2V3.85896C3 3.93721 3.00919 4.0152 3.02737 4.09131L5.92773 16.2324C6.03526 16.6825 6.43758 17 6.90036 17H13.273C13.7454 17 14.1534 16.6694 14.2513 16.2073L16.9783 3.33505C16.9927 3.26691 17 3.19745 17 3.12779V2C17 1.44772 16.5523 1 16 1Z" fill="#358FFF" stroke="#1B1F26" stroke-linecap="round"/>
<ellipse cx="10" cy="9" rx="3" ry="5" fill="white"/>
</svg>
