<svg width="20" height="20" viewBox="0 0 20 20" fill="none" xmlns="http://www.w3.org/2000/svg">
<ellipse cx="1.72563" cy="2.83759" rx="1.72563" ry="2.83759" transform="matrix(0.980454 -0.196746 0.184103 0.982907 5.44678 3.67908)" fill="#1B1F26"/>
<ellipse cx="1.72563" cy="2.83759" rx="1.72563" ry="2.83759" transform="matrix(-0.980454 -0.196746 -0.184103 0.982907 14.5532 3.67908)" fill="#1B1F26"/>
<ellipse cx="1.72437" cy="2.83954" rx="1.72437" ry="2.83954" transform="matrix(0.991568 -0.129587 0.121087 0.992642 2 7.01465)" fill="#1B1F26"/>
<ellipse cx="1.72437" cy="2.83954" rx="1.72437" ry="2.83954" transform="matrix(-0.991568 -0.129587 -0.121087 0.992642 18 7.01465)" fill="#1B1F26"/>
<path fill-rule="evenodd" clip-rule="evenodd" d="M11.3335 16.7295C11.0181 16.4138 10.5713 16.2514 10.1251 16.2514C9.57896 16.2514 9.02182 16.4384 8.62541 16.814C8.5569 16.8789 8.48571 16.9422 8.41187 17.0037C7.03488 18.1509 5.26201 18.2366 4.45205 17.1951C3.64209 16.1535 4.10176 14.3792 5.47875 13.232C6.27155 12.5714 6.9858 11.7077 7.61166 10.8873C8.1978 10.1189 9.10579 9.62573 10.1251 9.62573C11.2469 9.62573 12.234 10.2232 12.8054 11.1274C13.2873 11.8899 13.8739 12.6546 14.5669 13.232C15.9439 14.3792 16.4036 16.1535 15.5936 17.1951C14.7837 18.2366 13.0108 18.1509 11.6338 17.0037C11.5283 16.9158 11.4281 16.8242 11.3335 16.7295Z" fill="#1B1F26"/>
</svg>
