<svg width="20" height="20" viewBox="0 0 20 20" fill="none" xmlns="http://www.w3.org/2000/svg">
<mask id="path-1-outside-1_365_2757" maskUnits="userSpaceOnUse" x="0" y="1" width="20" height="18" fill="black">
<rect fill="white" y="1" width="20" height="18"/>
<path fill-rule="evenodd" clip-rule="evenodd" d="M9.50567 2.54665C9.94576 2.74919 10.4298 2.84913 10.9133 2.81847C11.0747 2.80823 11.2375 2.80303 11.4016 2.80303C15.5981 2.80303 19 6.20499 19 10.4015C19 14.598 15.5981 18 11.4016 18C8.54539 18 6.05728 16.4241 4.75926 14.0945C4.5238 13.6718 4.17879 13.3188 3.77126 13.0581C2.10475 11.9921 1 10.1251 1 8C1 4.68629 3.68629 2 7 2C7.89443 2 8.74315 2.19571 9.50567 2.54665Z"/>
</mask>
<path fill-rule="evenodd" clip-rule="evenodd" d="M9.50567 2.54665C9.94576 2.74919 10.4298 2.84913 10.9133 2.81847C11.0747 2.80823 11.2375 2.80303 11.4016 2.80303C15.5981 2.80303 19 6.20499 19 10.4015C19 14.598 15.5981 18 11.4016 18C8.54539 18 6.05728 16.4241 4.75926 14.0945C4.5238 13.6718 4.17879 13.3188 3.77126 13.0581C2.10475 11.9921 1 10.1251 1 8C1 4.68629 3.68629 2 7 2C7.89443 2 8.74315 2.19571 9.50567 2.54665Z" fill="white"/>
<path d="M3.77126 13.0581L3.23241 13.9005L3.77126 13.0581ZM9.50567 2.54665L9.08759 3.45506L9.50567 2.54665ZM10.9766 3.81646C11.117 3.80756 11.2587 3.80303 11.4016 3.80303V1.80303C11.2164 1.80303 11.0325 1.8089 10.85 1.82047L10.9766 3.81646ZM11.4016 3.80303C15.0458 3.80303 18 6.75727 18 10.4015H20C20 5.6527 16.1504 1.80303 11.4016 1.80303V3.80303ZM18 10.4015C18 14.0458 15.0458 17 11.4016 17V19C16.1504 19 20 15.1503 20 10.4015H18ZM11.4016 17C8.92259 17 6.76145 15.6334 5.63282 13.6077L3.8857 14.5812C5.3531 17.2149 8.16818 19 11.4016 19V17ZM4.31011 12.2157C2.91878 11.3257 2 9.76982 2 8H0C0 10.4803 1.29073 12.6585 3.23241 13.9005L4.31011 12.2157ZM2 8C2 5.23858 4.23858 3 7 3V1C3.13401 1 0 4.13401 0 8H2ZM7 3C7.74719 3 8.45353 3.16324 9.08759 3.45506L9.92375 1.63824C9.03277 1.22818 8.04166 1 7 1V3ZM5.63282 13.6077C5.31057 13.0294 4.84551 12.5582 4.31011 12.2157L3.23241 13.9005C3.51207 14.0794 3.73703 14.3143 3.8857 14.5812L5.63282 13.6077ZM10.85 1.82047C10.5454 1.83979 10.2261 1.77739 9.92375 1.63824L9.08759 3.45506C9.66542 3.72099 10.3141 3.85848 10.9766 3.81646L10.85 1.82047Z" fill="#1B1F26" mask="url(#path-1-outside-1_365_2757)"/>
<circle cx="13" cy="10" r="4" fill="#FFCA0F"/>
</svg>
