<svg width="20" height="20" viewBox="0 0 20 20" fill="none" xmlns="http://www.w3.org/2000/svg">
<path d="M6.45114 12.7885C7.24762 13.0139 8.07562 13.1891 8.75095 13.308C8.72275 13.3813 8.70129 13.4514 8.6881 13.5181C8.65973 13.6615 8.65957 13.8311 8.73986 13.9999C8.81492 14.1578 8.93299 14.2551 9.01323 14.3123L9.03739 14.3295L9.06342 14.3437C9.38294 14.5186 9.73077 14.5174 9.98717 14.4792C10.2491 14.4402 10.4841 14.3525 10.6338 14.2761L10.6923 14.2462L10.7412 14.2022L11.4737 13.5419C11.5663 13.5782 11.6649 13.6342 11.7774 13.7063C11.7946 13.7173 11.814 13.73 11.8348 13.7436C11.9062 13.7902 11.9945 13.8479 12.0696 13.8886C12.1447 13.9294 12.3619 14.0467 12.6156 13.9865L13.2873 13.8269L12.9261 13.2384C12.2474 12.1327 12.1804 10.8722 12.3879 9.75049C12.5973 8.61854 13.0738 7.6974 13.3862 7.3176L13.7187 6.91332L13.2996 6.59969C13.1696 6.5024 13.0263 6.47874 12.9605 6.47011C12.9142 6.46404 12.8682 6.46129 12.8256 6.46032C12.6932 6.17332 12.4908 5.96096 12.2735 5.81293C11.9722 5.60769 11.641 5.52338 11.4069 5.50855L11.3963 5.50787L11.3856 5.50765C10.6622 5.49272 8.91402 5.48905 7.75092 5.599C7.3836 5.63372 7.06787 5.75837 6.83679 5.99129C6.60661 6.2233 6.51173 6.51103 6.48611 6.77456C6.45895 7.05378 6.50534 7.33909 6.57963 7.59124C5.5523 8.01737 4.49735 8.70353 3.90105 9.13639C3.70359 9.04912 3.45113 8.93619 3.1873 8.81817C2.5782 8.5457 1.90854 8.24614 1.71531 8.17269C1.60265 8.12987 1.47787 8.09737 1.35056 8.08638C1.22859 8.07585 1.06939 8.08212 0.913119 8.15173C0.739028 8.22927 0.589803 8.37832 0.528611 8.59286C0.473794 8.78506 0.505757 8.97343 0.556625 9.1257L0.565796 9.15315L0.578074 9.17936C0.824711 9.7059 0.949308 10.0755 1.00755 10.3143C1.03673 10.4339 1.04752 10.5137 1.05051 10.5594C1.0507 10.5624 1.05086 10.5651 1.05099 10.5677C0.951697 10.8425 0.755695 11.4233 0.648062 11.8887L0.642641 11.9121L0.639495 11.936C0.595987 12.2659 0.669671 12.6267 0.994089 12.8246C1.25798 12.9855 1.5427 12.94 1.68649 12.8951L1.72716 12.8825L1.76509 12.8631L3.97283 11.7354C4.23642 11.9297 4.55432 12.0974 4.88559 12.2432C5.35834 12.4513 5.90224 12.6332 6.45114 12.7885ZM12.5607 13.017C12.5693 13.0199 12.5741 13.0222 12.5743 13.0227C12.5745 13.0231 12.5702 13.0217 12.5607 13.017ZM1.05117 10.5928C1.05112 10.5927 1.05115 10.5912 1.05143 10.5883C1.05136 10.5914 1.05122 10.5929 1.05117 10.5928Z" fill="#358FFF" stroke="#1B1F26" stroke-linecap="round"/>
<path d="M13.5002 14C11.4231 11.565 12.507 7.99324 13.5 7C16.4791 7.76896 19.0327 9.61928 18.9994 10.8688C18.9728 11.8685 13.0002 14.5 13.5002 14Z" fill="#358FFF" stroke="#1B1F26" stroke-linecap="round"/>
<circle cx="15.5" cy="9.5" r="0.5" fill="#1B1F26"/>
</svg>
