<svg width="20" height="20" viewBox="0 0 20 20" fill="none" xmlns="http://www.w3.org/2000/svg">
<rect width="2" height="6" rx="1" transform="matrix(-1 0 0 1 11 12)" fill="#543F2C" stroke="#1B1F26"/>
<rect width="10" height="13" rx="5" transform="matrix(-1 0 0 1 15 2)" fill="#FFD9AD" stroke="#1B1F26"/>
<path d="M8.75 4H10.0426C10.2302 4 10.4116 4.06712 10.554 4.18924L10.5682 4.20141C10.9066 4.49158 10.9278 5.00791 10.6144 5.32486V5.32486C10.5038 5.4367 10.3615 5.51189 10.2068 5.54027L9.62895 5.64625C9.33233 5.70066 9.09771 5.92845 9.03456 6.22334V6.22334C8.99454 6.41021 9.02782 6.60532 9.12754 6.76836L9.13978 6.78837C9.2859 7.02727 9.54577 7.17295 9.82581 7.17295H10.4249C10.5966 7.17295 10.7603 7.24533 10.8759 7.37231V7.37231C11.0501 7.56372 11.0845 7.84425 10.9618 8.07209L10.9562 8.08245C10.8775 8.22844 10.7442 8.33728 10.5854 8.38512L9.97222 8.56985L9.39945 8.75568C9.21733 8.81476 9.07225 8.95391 9.00562 9.13341L9.00162 9.14418C8.9312 9.3339 8.96034 9.54627 9.07926 9.71002V9.71002C9.17099 9.83634 9.30803 9.92228 9.46168 9.94988L10.126 10.0692C10.19 10.0807 10.2529 10.0979 10.3139 10.1205L10.6455 10.2437C10.8753 10.3292 11.0278 10.5485 11.0278 10.7937V10.7937C11.0278 10.9654 10.9525 11.1285 10.8219 11.24L10.7433 11.307C10.6384 11.3965 10.5124 11.4577 10.3772 11.4849L9.88889 11.5831L9.32458 11.699C9.18753 11.7271 9.06654 11.8068 8.98663 11.9217V11.9217C8.923 12.0131 8.88889 12.123 8.88889 12.2343V12.2343C8.88889 12.4131 8.97498 12.5829 9.12017 12.6872L9.19648 12.742C9.26861 12.7939 9.34949 12.8322 9.43523 12.8553L9.69144 12.9244C9.87781 12.9746 10.07 13 10.263 13H11.25" stroke="#EC5A54" stroke-linecap="round"/>
</svg>
