<svg width="20" height="20" viewBox="0 0 20 20" fill="none" xmlns="http://www.w3.org/2000/svg">
<path d="M11.3138 15.4043C11.2935 15.6028 11.332 15.8167 11.4875 15.9978C11.6934 16.2377 11.9878 16.2798 12.1935 16.2654C12.6085 16.2365 13.0796 15.9648 13.3142 15.4988C13.4713 15.1867 13.7307 14.6315 13.9355 14.0322C14.1325 13.4558 14.3115 12.7493 14.2286 12.173C14.2013 11.9833 14.1399 11.774 14.0924 11.612C14.0776 11.5616 14.0641 11.5158 14.0535 11.4765C13.9984 11.274 13.9838 11.151 13.9999 11.0583C14.1977 9.9216 14.463 8.30174 14.4965 6.73932C14.5132 5.95738 14.4725 5.17404 14.3299 4.46294C14.188 3.75505 13.9389 3.08679 13.5155 2.56485C13.075 2.02178 12.5816 1.68684 12.0623 1.55864C11.5397 1.42961 11.0405 1.52259 10.6198 1.74704C9.80471 2.18183 9.25148 3.12353 9.25148 4.04051C9.25148 8.81925 8.88113 12.797 5.54875 15.2828C5.00101 15.6914 4.77453 16.3482 4.87086 16.9183C4.91971 17.2074 5.0555 17.4933 5.2975 17.7045C5.54496 17.9206 5.86887 18.0281 6.23035 18.0117C6.51732 17.9988 6.80609 17.9724 7.08857 17.9281C7.08903 18.0346 7.09207 18.1556 7.10589 18.2679C7.11968 18.38 7.15598 18.6147 7.3253 18.7907C7.42713 18.8965 7.5652 18.9689 7.72578 18.984C7.87303 18.9978 8.00261 18.9603 8.10033 18.9175C8.79276 18.6143 9.41609 18.0238 9.72886 17.0217C9.781 16.8547 9.89501 16.7004 10.0477 16.5934C10.4064 16.3421 10.8513 15.9524 11.3138 15.4043Z" fill="#F9AC22" stroke="#1B1F26" stroke-linecap="round"/>
<path d="M9.5 6H12" stroke="#1B1F26" stroke-linecap="round"/>
<path d="M9.5 8H11" stroke="#1B1F26" stroke-linecap="round"/>
<path d="M8.5 12H10" stroke="#1B1F26" stroke-linecap="round"/>
</svg>
