<svg width="25" height="24" viewBox="0 0 25 24" fill="none" xmlns="http://www.w3.org/2000/svg">
<path d="M4.20112 3.655C4.02012 4.015 3.93112 4.461 3.75312 5.351L3.15512 8.341C3.07037 8.74867 3.06971 9.16936 3.15319 9.5773C3.23667 9.98523 3.40252 10.3718 3.64061 10.7135C3.87869 11.0551 4.18399 11.3445 4.53781 11.564C4.89163 11.7835 5.28653 11.9285 5.69834 11.9901C6.11015 12.0518 6.5302 12.0287 6.93278 11.9223C7.33535 11.8159 7.71198 11.6285 8.03961 11.3715C8.36724 11.1145 8.63897 10.7934 8.83817 10.4277C9.03738 10.0621 9.15986 9.65963 9.19812 9.245L9.26812 8.555C9.22944 8.99423 9.2829 9.43669 9.42507 9.85406C9.56725 10.2714 9.79502 10.6545 10.0938 10.9788C10.3926 11.3031 10.7557 11.5614 11.1601 11.7372C11.5645 11.913 12.0011 12.0024 12.442 11.9998C12.8829 11.9971 13.3184 11.9024 13.7206 11.7218C14.1228 11.5411 14.4829 11.2784 14.7777 10.9506C15.0726 10.6227 15.2957 10.2369 15.4328 9.81786C15.57 9.3988 15.6181 8.95573 15.5741 8.517L15.6481 9.245C15.6864 9.65963 15.8089 10.0621 16.0081 10.4277C16.2073 10.7934 16.479 11.1145 16.8066 11.3715C17.1343 11.6285 17.5109 11.8159 17.9135 11.9223C18.316 12.0287 18.7361 12.0518 19.1479 11.9901C19.5597 11.9285 19.9546 11.7835 20.3084 11.564C20.6623 11.3445 20.9676 11.0551 21.2056 10.7135C21.4437 10.3718 21.6096 9.98523 21.693 9.5773C21.7765 9.16936 21.7759 8.74867 21.6911 8.341L21.0931 5.351C20.9151 4.461 20.8261 4.016 20.6451 3.655C20.4565 3.27904 20.191 2.94694 19.8657 2.68025C19.5405 2.41356 19.1628 2.21826 18.7571 2.107C18.3671 2 17.9131 2 17.0051 2H7.84112C6.93312 2 6.47912 2 6.08912 2.107C5.68349 2.21826 5.30578 2.41356 4.98052 2.68025C4.65526 2.94694 4.38971 3.27904 4.20112 3.655ZM18.6911 13.5C19.4728 13.5021 20.2417 13.302 20.9231 12.919V14C20.9231 17.771 21.0377 20.329 19.8657 21.5C18.9227 22.444 17.4031 21.955 14.9231 21.991V18.5C14.9231 17.565 14.9231 17.098 14.7221 16.75C14.5905 16.522 14.4011 16.3326 14.1731 16.201C13.8251 16 13.3581 16 12.4231 16C11.4881 16 11.0211 16 10.6731 16.201C10.4451 16.3326 10.2558 16.522 10.1241 16.75C9.92312 17.098 9.92312 17.565 9.92312 18.5V21.991C7.44312 21.955 5.92352 22.443 4.98052 21.5C3.80852 20.329 3.92312 17.771 3.92312 14V12.919C4.60453 13.302 5.37345 13.5021 6.15512 13.5C7.31078 13.5008 8.42343 13.0618 9.26712 12.272C10.127 13.0641 11.254 13.5026 12.4231 13.5C13.5918 13.5022 14.7184 13.0637 15.5781 12.272C16.4226 13.0625 17.5364 13.5016 18.6931 13.5H18.6911Z" fill="#111213"/>
</svg>
