<svg width="50" height="60" viewBox="0 0 50 60" fill="none" xmlns="http://www.w3.org/2000/svg">
<g filter="url(#filter0_d_365_3118)">
<path fill-rule="evenodd" clip-rule="evenodd" d="M4.00021 22.787C4.00021 11.3314 13.4212 2 25 2C36.5788 2 45.9998 11.3314 45.9998 22.8C46.0759 39.544 25 54 25 54C24.9875 53.9912 24.9702 53.9791 24.9482 53.9638C23.5706 53.0016 3.92528 39.281 4.00021 22.787ZM24.9642 33.1999C24.9761 33.2 24.9881 33.2 25 33.2C25.0119 33.2 25.0239 33.2 25.0358 33.1999H24.9642Z" fill="#FF7455"/>
<path d="M14.4999 20.7949C17.8137 25.0208 26.6529 30.937 35.4997 20.7949" stroke="white" stroke-width="6.06661" stroke-linecap="round"/>
</g>
<defs>
<filter id="filter0_d_365_3118" x="0" y="0" width="50" height="60" filterUnits="userSpaceOnUse" color-interpolation-filters="sRGB">
<feFlood flood-opacity="0" result="BackgroundImageFix"/>
<feColorMatrix in="SourceAlpha" type="matrix" values="0 0 0 0 0 0 0 0 0 0 0 0 0 0 0 0 0 0 127 0" result="hardAlpha"/>
<feOffset dy="2"/>
<feGaussianBlur stdDeviation="2"/>
<feComposite in2="hardAlpha" operator="out"/>
<feColorMatrix type="matrix" values="0 0 0 0 0 0 0 0 0 0 0 0 0 0 0 0 0 0 0.2 0"/>
<feBlend mode="normal" in2="BackgroundImageFix" result="effect1_dropShadow_365_3118"/>
<feBlend mode="normal" in="SourceGraphic" in2="effect1_dropShadow_365_3118" result="shape"/>
</filter>
</defs>
</svg>
