<svg width="24" height="24" viewBox="0 0 24 24" fill="none" xmlns="http://www.w3.org/2000/svg">
<path d="M3.77802 3.655C3.59702 4.015 3.50802 4.461 3.33002 5.351L2.73202 8.341C2.64727 8.74867 2.64662 9.16936 2.73009 9.5773C2.81357 9.98523 2.97943 10.3718 3.21751 10.7135C3.45559 11.0551 3.76089 11.3445 4.11471 11.564C4.46853 11.7835 4.86344 11.9285 5.27525 11.9901C5.68706 12.0518 6.1071 12.0287 6.50968 11.9223C6.91225 11.8159 7.28888 11.6285 7.61651 11.3715C7.94414 11.1145 8.21588 10.7934 8.41508 10.4277C8.61428 10.0621 8.73676 9.65963 8.77502 9.245L8.84502 8.555C8.80634 8.99423 8.8598 9.43669 9.00198 9.85406C9.14416 10.2714 9.37192 10.6545 9.67069 10.9788C9.96946 11.3031 10.3327 11.5614 10.737 11.7372C11.1414 11.913 11.578 12.0024 12.0189 11.9998C12.4598 11.9971 12.8953 11.9024 13.2975 11.7218C13.6997 11.5411 14.0598 11.2784 14.3546 10.9506C14.6495 10.6227 14.8726 10.2369 15.0097 9.81786C15.1469 9.3988 15.195 8.95573 15.151 8.517L15.225 9.245C15.2633 9.65963 15.3858 10.0621 15.585 10.4277C15.7842 10.7934 16.0559 11.1145 16.3835 11.3715C16.7112 11.6285 17.0878 11.8159 17.4904 11.9223C17.8929 12.0287 18.313 12.0518 18.7248 11.9901C19.1366 11.9285 19.5315 11.7835 19.8853 11.564C20.2392 11.3445 20.5445 11.0551 20.7825 10.7135C21.0206 10.3718 21.1865 9.98523 21.27 9.5773C21.3534 9.16936 21.3528 8.74867 21.268 8.341L20.67 5.351C20.492 4.461 20.403 4.016 20.222 3.655C20.0334 3.27904 19.7679 2.94694 19.4426 2.68025C19.1174 2.41356 18.7397 2.21826 18.334 2.107C17.944 2 17.49 2 16.582 2H7.41802C6.51002 2 6.05602 2 5.66602 2.107C5.26039 2.21826 4.88269 2.41356 4.55743 2.68025C4.23217 2.94694 3.96662 3.27904 3.77802 3.655ZM18.268 13.5C19.0497 13.5021 19.8186 13.302 20.5 12.919V14C20.5 17.771 20.6146 20.329 19.4426 21.5C18.4996 22.444 16.98 21.955 14.5 21.991V18.5C14.5 17.565 14.5 17.098 14.299 16.75C14.1674 16.522 13.978 16.3326 13.75 16.201C13.402 16 12.935 16 12 16C11.065 16 10.598 16 10.25 16.201C10.022 16.3326 9.83267 16.522 9.70102 16.75C9.50002 17.098 9.50002 17.565 9.50002 18.5V21.991C7.02002 21.955 5.50043 22.443 4.55743 21.5C3.38543 20.329 3.50002 17.771 3.50002 14V12.919C4.18144 13.302 4.95036 13.5021 5.73202 13.5C6.88768 13.5008 8.00033 13.0618 8.84402 12.272C9.7039 13.0641 10.8309 13.5026 12 13.5C13.1687 13.5022 14.2953 13.0637 15.155 12.272C15.9995 13.0625 17.1133 13.5016 18.27 13.5H18.268Z" fill="#FF7455"/>
</svg>
