<svg width="20" height="20" viewBox="0 0 20 20" fill="none" xmlns="http://www.w3.org/2000/svg">
<path d="M17.6973 5.88385C12.7734 0.157022 5.78001 4.04845 2.20932 8.16155C1.34997 9.15144 1 9.80425 1 11.1151C1 12.7212 1.32837 15.4789 2.90847 15.7665C3.29437 15.8367 3.75527 15.8046 4.43511 15.7527C8.15111 14.9906 8.16273 15.5315 11.3791 17.1543C11.8748 17.4045 12.3996 17.6082 12.9504 17.678C16.1833 18.0877 17.9637 15.8607 18.6979 14.0836C18.9436 13.4887 19 12.8397 19 12.1961V9.96182C19 8.49236 18.6553 6.99809 17.6973 5.88385Z" fill="white" stroke="#1B1F26" stroke-width="0.818182" stroke-linecap="round"/>
<path d="M3.83694 8.86878C5.49735 7.27537 7.62749 5.77796 9.81563 5.24801C10.9035 4.98452 11.9969 4.96213 13.0558 5.2766C14.113 5.59056 15.1617 6.24792 16.1509 7.3848C16.7098 8.02715 16.9547 8.90238 16.9547 9.81307C16.9547 10.3108 16.8901 10.7669 16.691 11.1507C16.3412 11.8248 15.7813 12.5255 15.018 12.9146C14.2749 13.2934 13.2909 13.4024 12.0134 12.8171C11.5071 12.5851 11.0662 12.3775 10.6732 12.192C10.6303 12.1718 10.5879 12.1518 10.5461 12.132C10.2056 11.9712 9.90001 11.8269 9.62051 11.699C8.99351 11.4122 8.47893 11.1994 7.95583 11.056C6.9025 10.7672 5.85962 10.7738 3.8386 10.9159C3.49909 10.9137 3.31067 10.8295 3.21093 10.7442C3.11605 10.6631 3.05614 10.5429 3.0504 10.3632C3.03803 9.97584 3.29107 9.39263 3.83694 8.86878Z" fill="#EC5A54" stroke="#EC5A54" stroke-width="0.818182" stroke-linecap="round"/>
<circle cx="13.2731" cy="9.54542" r="1.63636" fill="white"/>
</svg>
