<svg width="20" height="20" viewBox="0 0 20 20" fill="none" xmlns="http://www.w3.org/2000/svg">
<path d="M7.5 17.2242V3.70402C7.5 3.13742 7.19216 2.66004 6.75422 2.42659C6.30263 2.18586 5.72218 2.21466 5.2785 2.63611C3.81303 4.02818 3.40587 5.74914 3.51744 7.34886C3.628 8.934 4.2461 10.42 4.86033 11.4309C4.91972 11.5286 4.94831 11.63 4.94831 11.7258V17.2242C4.94831 17.9288 5.51953 18.5 6.22416 18.5C6.92879 18.5 7.5 17.9288 7.5 17.2242Z" fill="#DADCE2" stroke="#1B1F26" stroke-linecap="round"/>
<mask id="path-2-outside-1_365_2806" maskUnits="userSpaceOnUse" x="9" y="2" width="9" height="17" fill="black">
<rect fill="white" x="9" y="2" width="9" height="17"/>
<path fill-rule="evenodd" clip-rule="evenodd" d="M14.0271 9.77436C14.0271 9.32381 14.338 8.94286 14.7322 8.72466C15.6856 8.19692 16.3281 7.2028 16.3281 6.06338C16.3281 4.37152 14.9115 3 13.1641 3C11.4166 3 10 4.37152 10 6.06338C10 7.20287 10.6426 8.19705 11.5961 8.72476C11.9903 8.94295 12.3013 9.32392 12.3013 9.7745V17.1371C12.3013 17.6137 12.6876 18 13.1642 18C13.6408 18 14.0271 17.6137 14.0271 17.1371V9.77436Z"/>
</mask>
<path fill-rule="evenodd" clip-rule="evenodd" d="M14.0271 9.77436C14.0271 9.32381 14.338 8.94286 14.7322 8.72466C15.6856 8.19692 16.3281 7.2028 16.3281 6.06338C16.3281 4.37152 14.9115 3 13.1641 3C11.4166 3 10 4.37152 10 6.06338C10 7.20287 10.6426 8.19705 11.5961 8.72476C11.9903 8.94295 12.3013 9.32392 12.3013 9.7745V17.1371C12.3013 17.6137 12.6876 18 13.1642 18C13.6408 18 14.0271 17.6137 14.0271 17.1371V9.77436Z" fill="#DADCE2"/>
<path d="M14.7322 8.72466L14.2479 7.84975L14.7322 8.72466ZM15.3281 6.06338C15.3281 6.81339 14.9062 7.48536 14.2479 7.84975L15.2165 9.59956C16.465 8.90848 17.3281 7.5922 17.3281 6.06338H15.3281ZM13.1641 4C14.39 4 15.3281 4.95404 15.3281 6.06338H17.3281C17.3281 3.789 15.4331 2 13.1641 2V4ZM11 6.06338C11 4.95404 11.9382 4 13.1641 4V2C10.895 2 9 3.789 9 6.06338H11ZM12.0803 7.84982C11.422 7.48545 11 6.81344 11 6.06338H9C9 7.5923 9.86323 8.90864 11.1118 9.59969L12.0803 7.84982ZM13.3013 17.1371V9.7745H11.3013V17.1371H13.3013ZM13.0271 9.77436V17.1371H15.0271V9.77436H13.0271ZM11.3013 17.1371C11.3013 18.1659 12.1353 19 13.1642 19V17C13.2399 17 13.3013 17.0614 13.3013 17.1371H11.3013ZM11.1118 9.59969C11.1956 9.64606 11.252 9.70045 11.2812 9.74154C11.3074 9.77842 11.3013 9.78778 11.3013 9.7745H13.3013C13.3013 8.83836 12.6697 8.176 12.0803 7.84982L11.1118 9.59969ZM13.1642 19C14.1931 19 15.0271 18.1659 15.0271 17.1371H13.0271C13.0271 17.0614 13.0885 17 13.1642 17V19ZM14.2479 7.84975C13.6586 8.17595 13.0271 8.83829 13.0271 9.77436H15.0271C15.0271 9.78764 15.021 9.77828 15.0472 9.7414C15.0763 9.70032 15.1328 9.64593 15.2165 9.59956L14.2479 7.84975Z" fill="#1B1F26" mask="url(#path-2-outside-1_365_2806)"/>
</svg>
