<svg width="20" height="20" viewBox="0 0 20 20" fill="none" xmlns="http://www.w3.org/2000/svg">
<path d="M6.30168 6.47989C5.44436 7.41498 4.11377 7.7187 3.10919 7.74137C2.55805 7.75382 1.88177 8.03722 1.67161 8.72627C1.54567 9.13919 1.5 9.48695 1.5 9.68421V11C1.5 11.8284 2.17157 12.5 3 12.5H17.382C17.6609 12.5 17.9635 12.4184 18.2015 12.2378C18.4548 12.0456 18.6458 11.7238 18.5821 11.3203C18.4821 10.6874 18.0185 10.1102 17.4181 9.6668C16.8039 9.21329 15.9841 8.85067 15.0446 8.66717C14.359 8.53325 13.2087 8.11751 11.942 7.59508C10.6888 7.07821 9.36297 6.47454 8.34538 5.98695C7.58665 5.6234 6.7692 5.96995 6.30168 6.47989Z" fill="#358FFF" stroke="#1B1F26" stroke-linecap="round"/>
<path d="M2 11.5H1.5V12V13C1.5 13.8284 2.17157 14.5 3 14.5H17C17.8284 14.5 18.5 13.8284 18.5 13V12V11.5H18H2Z" fill="white" stroke="#1B1F26"/>
<path d="M9 8L10 7" stroke="#1B1F26" stroke-linecap="round"/>
<path d="M11 9L12 8" stroke="#1B1F26" stroke-linecap="round"/>
</svg>
