<svg width="20" height="20" viewBox="0 0 20 20" fill="none" xmlns="http://www.w3.org/2000/svg">
<path d="M5.5 4.5H17C18.3807 4.5 19.5 5.61929 19.5 7C19.5 8.38071 18.3807 9.5 17 9.5H5.5V4.5Z" fill="#EC5A54" stroke="#1B1F26"/>
<path d="M2.85678 12.0741L14.7987 8.38437C16.1488 7.9672 17.5525 8.73212 17.9339 10.0929C18.3152 11.4536 17.5298 12.8949 16.1796 13.3121L4.23775 17.0018L2.85678 12.0741Z" fill="#EC5A54" stroke="#1B1F26"/>
<circle cx="5" cy="7" r="2.5" fill="#BC2C26" stroke="#1B1F26"/>
<path d="M5.95778 13.7931C6.34439 15.1727 5.58801 16.5846 4.32094 16.9761C3.05387 17.3675 1.68974 16.6108 1.30313 15.2313C0.916516 13.8517 1.67289 12.4399 2.93997 12.0484C4.20704 11.6569 5.57117 12.4136 5.95778 13.7931Z" fill="#BC2C26" stroke="#1B1F26"/>
</svg>
