<svg width="20" height="20" viewBox="0 0 20 20" fill="none" xmlns="http://www.w3.org/2000/svg">
<path d="M7.49132 11.9773C5.583 11.8127 5.10592 11.0513 5.0022 10.3825C4.89849 6.52434 8.4766 5.64981 11.3806 6.11279C14.2845 6.57578 15.218 8.73638 14.9587 10.3825C14.7512 11.6995 13.0054 11.9944 12.1584 11.9773C11.5016 11.9944 9.64856 12.0184 7.49132 11.9773Z" fill="#5DC08C" stroke="#1B1F26" stroke-linecap="round"/>
<path d="M4.17294 13.9773C2.43785 13.8127 2.09635 13.0415 2.00205 12.3728C1.90775 8.51504 5.06877 7.65051 7.70913 8.11345C10.3495 8.57638 11.1982 10.7367 10.9624 12.3827C10.7738 13.6995 9.18647 13.9944 8.41637 13.9773C7.81915 13.9944 6.13435 14.0184 4.17294 13.9773Z" fill="#F5D564" stroke="#1B1F26" stroke-linecap="round"/>
<path d="M15.8271 13.9773C17.5622 13.8127 17.9037 13.0415 17.998 12.3728C18.0922 8.51504 14.9312 7.65051 12.2909 8.11345C9.65051 8.57638 8.80183 10.7367 9.03757 12.3827C9.22617 13.6995 10.8135 13.9944 11.5836 13.9773C12.1809 13.9944 13.8657 14.0184 15.8271 13.9773Z" fill="#FFA0A0" stroke="#1B1F26" stroke-linecap="round"/>
<path d="M7.49132 14.9773C5.583 14.8127 5.10592 14.0513 5.0022 13.3825C4.89849 9.52434 8.4766 8.64981 11.3806 9.11279C14.2845 9.57578 15.218 11.7364 14.9587 13.3825C14.7512 14.6995 13.0054 14.9944 12.1584 14.9773C11.5016 14.9944 9.64856 15.0184 7.49132 14.9773Z" fill="white" stroke="#1B1F26" stroke-linecap="round"/>
</svg>
