<svg width="468" height="541" viewBox="0 0 468 541" fill="none" xmlns="http://www.w3.org/2000/svg">
<path fill-rule="evenodd" clip-rule="evenodd" d="M294.749 185.75C284.337 196.195 267.429 196.222 256.984 185.81C218.143 147.095 138.24 171.851 139.397 246.23C139.627 260.977 127.858 273.117 113.112 273.347C98.3653 273.576 86.2248 261.808 85.9953 247.061C84.1226 126.743 220.485 74.0193 294.688 147.984C305.134 158.396 305.161 175.304 294.749 185.75Z" fill="#B84F3E"/>
<circle cx="249.885" cy="137.885" r="48.6842" transform="rotate(4.61159 249.885 137.885)" fill="#FCCD00" stroke="white" stroke-width="4.58204"/>
<path d="M251.085 106.378C249.368 108.665 247.123 114.179 251.877 117.934" stroke="#2D191A" stroke-width="4.58204" stroke-linecap="round"/>
<circle cx="259.867" cy="123.367" r="5.91847" transform="rotate(4.61159 259.867 123.367)" fill="#50B1C1" stroke="#2D191A" stroke-width="3.05469"/>
<circle cx="247.307" cy="122.354" r="5.91847" transform="rotate(4.61159 247.307 122.354)" fill="#50B1C1" stroke="#2D191A" stroke-width="3.05469"/>
<circle cx="239.988" cy="132.169" r="5.91847" transform="rotate(4.61159 239.988 132.169)" fill="#50B1C1" stroke="#2D191A" stroke-width="3.05469"/>
<circle cx="253.298" cy="133.563" r="5.91847" transform="rotate(4.61159 253.298 133.563)" fill="#50B1C1" stroke="#2D191A" stroke-width="3.05469"/>
<circle cx="245.588" cy="143.668" r="5.91847" transform="rotate(4.61159 245.588 143.668)" fill="#50B1C1" stroke="#2D191A" stroke-width="3.05469"/>
<circle cx="258.017" cy="145.371" r="5.91847" transform="rotate(4.61159 258.017 145.371)" fill="#50B1C1" stroke="#2D191A" stroke-width="3.05469"/>
<circle cx="250.057" cy="154.754" r="5.91847" transform="rotate(4.61159 250.057 154.754)" fill="#50B1C1" stroke="#2D191A" stroke-width="3.05469"/>
<circle cx="241.966" cy="164.827" r="5.91847" transform="rotate(4.61159 241.966 164.827)" fill="#50B1C1" stroke="#2D191A" stroke-width="3.05469"/>
<rect x="55" y="269.253" width="305.763" height="305.763" rx="39.9339" transform="rotate(-27.5142 55 269.253)" fill="white"/>
<path fill-rule="evenodd" clip-rule="evenodd" d="M129.565 295.558C139.707 284.85 156.609 284.391 167.317 294.533C207.134 332.245 286.379 305.456 283.322 231.131C282.716 216.395 294.171 203.958 308.907 203.352C323.643 202.746 336.08 214.2 336.686 228.936C341.63 349.168 206.658 405.356 130.59 333.31C119.883 323.168 119.424 306.266 129.565 295.558Z" fill="#F4644C"/>
<circle cx="148.9" cy="313.682" r="14.6873" transform="rotate(-27.5142 148.9 313.682)" fill="white"/>
<circle cx="309.95" cy="229.794" r="14.6873" transform="rotate(-27.5142 309.95 229.794)" fill="white"/>
<circle cx="102.5" cy="102.5" r="71.6696" transform="rotate(97.7184 102.5 102.5)" fill="#00C36F" stroke="white" stroke-width="7.47857"/>
<path d="M143.31 121.306C140.884 100.837 124.944 61.3546 78.3763 64.4386C80.329 84.0641 89.245 123.446 143.31 121.306Z" fill="#86B940"/>
<path d="M143.31 121.306C143.299 121.211 143.322 121.402 143.31 121.306ZM143.31 121.306C140.884 100.837 124.944 61.3546 78.3763 64.4386C80.329 84.0641 89.245 123.446 143.31 121.306Z" stroke="#1D1B30" stroke-width="4.98571" stroke-linecap="round"/>
<path d="M126.568 140.423C105.957 140.717 64.7182 130.123 61.6343 83.5554C81.3459 82.903 121.56 86.5476 126.568 140.423Z" fill="#86B940"/>
<path d="M126.568 140.423C126.472 140.425 126.665 140.421 126.568 140.423ZM126.568 140.423C105.957 140.717 64.7182 130.123 61.6343 83.5554C81.3459 82.903 121.56 86.5476 126.568 140.423Z" stroke="#1D1B30" stroke-width="4.98571" stroke-linecap="round"/>
<path d="M135.098 130.683C132.672 110.213 116.732 70.7313 70.1645 73.8153C72.1172 93.4408 81.0332 132.823 135.098 130.683Z" fill="#FFC40B"/>
<path d="M135.098 130.683C135.088 130.587 135.11 130.779 135.098 130.683ZM135.098 130.683C132.672 110.213 116.732 70.7313 70.1645 73.8153C72.1172 93.4408 81.0332 132.823 135.098 130.683Z" stroke="#1D1B30" stroke-width="4.98571" stroke-linecap="round"/>
<rect x="118.5" y="121.73" width="3.11607" height="3.11607" rx="0.623214" transform="rotate(131.211 118.5 121.73)" fill="#1D1B30"/>
<rect x="115.865" y="115.28" width="3.11607" height="3.11607" rx="0.623214" transform="rotate(131.211 115.865 115.28)" fill="#1D1B30"/>
<rect x="107.071" y="115.862" width="3.11607" height="3.11607" rx="0.623214" transform="rotate(131.211 107.071 115.862)" fill="#1D1B30"/>
<rect x="95.8186" y="106.008" width="3.11607" height="3.11607" rx="0.623214" transform="rotate(131.211 95.8186 106.008)" fill="#1D1B30"/>
<rect x="90.548" y="93.1073" width="3.11607" height="3.11607" rx="0.623214" transform="rotate(131.211 90.548 93.1073)" fill="#1D1B30"/>
<rect x="102.382" y="111.756" width="3.11607" height="3.11607" rx="0.623214" transform="rotate(131.211 102.382 111.756)" fill="#1D1B30"/>
<rect x="91.1301" y="101.902" width="3.11607" height="3.11607" rx="0.623214" transform="rotate(131.211 91.1301 101.902)" fill="#1D1B30"/>
<rect x="85.8594" y="89.0013" width="3.11607" height="3.11607" rx="0.623214" transform="rotate(131.211 85.8594 89.0013)" fill="#1D1B30"/>
<circle cx="79.1612" cy="181.161" r="44.5651" transform="rotate(-31.5125 79.1612 181.161)" fill="#4E87FA" stroke="white" stroke-width="5.54177"/>
<path d="M67.1297 171.047L68.3466 171.449L69.0416 170.372C71.4297 166.672 71.7205 163.19 70.6546 160.402C69.6158 157.686 67.3456 155.81 64.9803 155.213L63.956 154.955L63.2894 155.774C60.4738 159.236 60.0478 162.693 61.1939 165.564C62.2912 168.313 64.7252 170.252 67.1297 171.047Z" fill="#ADD324" stroke="#1D1B30" stroke-width="3.31364" stroke-linecap="round"/>
<circle cx="84.8173" cy="186.03" r="20.9173" transform="rotate(-57.1634 84.8173 186.03)" fill="#FFD300" stroke="#1D1B30" stroke-width="4.14205"/>
<circle cx="19.5" cy="267.5" r="19.5" fill="white" fill-opacity="0.62"/>
<circle cx="208" cy="24" r="24" fill="white" fill-opacity="0.31"/>
<circle cx="260" cy="54" r="9" fill="white" fill-opacity="0.51"/>
<circle cx="93" cy="404" r="9" fill="white" fill-opacity="0.54"/>
</svg>
